<svg width="38" height="38" viewBox="0 0 38 38" fill="none" xmlns="http://www.w3.org/2000/svg">
<path d="M6.6073 18.8307H29.7059C30.2665 18.8307 30.7209 19.2863 30.7209 19.8484C30.7209 20.4105 30.2665 20.8661 29.7059 20.8661H6.6073C6.04667 20.8661 5.59224 20.4105 5.59224 19.8484C5.59224 19.2864 6.04667 18.8307 6.6073 18.8307Z" fill="white"/>
<path d="M6.6073 11.1111H29.7059C30.2665 11.1111 30.7209 11.5668 30.7209 12.1288C30.7209 12.6909 30.2665 13.1465 29.7059 13.1465H6.6073C6.04667 13.1465 5.59224 12.6909 5.59224 12.1288C5.59224 11.5668 6.04667 11.1111 6.6073 11.1111Z" fill="white"/>
<path d="M6.6073 26.5503H29.7059C30.2665 26.5503 30.7209 27.0059 30.7209 27.568C30.7209 28.1301 30.2665 28.5857 29.7059 28.5857H6.6073C6.04667 28.5857 5.59224 28.1301 5.59224 27.568C5.59224 27.0059 6.04667 26.5503 6.6073 26.5503Z" fill="white"/>
</svg>
